<svg width="28" height="18" viewBox="0 0 28 18" fill="none" xmlns="http://www.w3.org/2000/svg">
<path d="M13.6008 11.3542C7.32308 11.3542 2.2124 11.4065 2.2124 11.4587C2.2124 11.5283 7.30296 11.5631 13.6008 11.5631C19.8986 11.5631 24.9891 11.5109 24.9891 11.4587C24.9891 11.4065 19.8784 11.3542 13.6008 11.3542Z" fill="white"/>
<path d="M21.1661 8.86027H20.5424L18.0072 1.49997L15.3713 8.86027H14.7476L12.3532 0.767425H12.7758L15.0695 8.51144H15.0897L17.8462 0.802308H18.2084L20.8643 8.51144L23.2989 0.767425H23.7215L21.1661 8.86027ZM22.7355 0C22.474 0 22.2526 0.156974 22.152 0.401154L20.7034 5.45918L18.8724 0H17.4237C17.1822 0 16.9609 0.139532 16.8402 0.401154L15.15 5.45918L13.7416 0.418595V0.401154C13.641 0.156974 13.4196 0 13.1581 0H10.985L13.9629 9.68001L14.0031 9.81955H16.0957L17.9468 4.51734L19.7979 9.81955H21.8905L24.9287 0.0174419H22.7355V0ZM9.5162 5.18012C9.5162 6.26149 9.53632 7.39518 8.53028 8.26726C7.92666 8.7905 7.02122 9.087 5.95482 9.087H3.19828V0.749984H5.95482C7.02122 0.749984 7.90654 1.02905 8.53028 1.56973C9.53632 2.44181 9.53632 3.48829 9.5162 4.58711V5.18012ZM9.33511 0.959281C8.61077 0.331388 7.56449 0 6.317 0H2.17212V9.80211H6.317C7.56449 9.80211 8.61077 9.47072 9.33511 8.84282C10.5222 7.81378 10.5021 6.48823 10.5021 5.215V4.51734C10.5021 3.20923 10.5021 1.98833 9.33511 0.959281ZM7.54437 7.29053C7.20231 7.65681 6.75965 7.81378 6.11579 7.81378H4.70734V2.00577H6.11579C6.75965 2.00577 7.20231 2.16274 7.54437 2.52901C7.88642 2.89528 7.9669 3.47085 7.9669 4.86617C7.94678 6.26149 7.90654 6.90682 7.54437 7.29053ZM8.24859 1.81391C7.70533 1.34299 6.92062 1.09881 5.97494 1.09881H3.60069V8.70329H5.95482C6.92062 8.70329 7.70533 8.45911 8.22847 7.98819C9.11379 7.22077 9.11378 6.2266 9.09366 5.16267V4.56967C9.11378 3.50574 9.13391 2.58134 8.24859 1.81391Z" fill="white"/>
<path d="M3.76255 16.2205L4.20521 13.6741L4.92955 13.5869L4.80882 14.302H5.53317L5.45268 14.8252H4.72834L4.48689 16.1856C4.46677 16.2729 4.50702 16.3077 4.62774 16.3077C4.76858 16.3077 4.94967 16.2554 5.11063 16.2031L5.2716 16.6217C5.03015 16.7263 4.72834 16.8135 4.38629 16.8135C3.92352 16.8135 3.70219 16.5868 3.76255 16.2205ZM25.2514 16.2205L25.694 13.6741L26.4184 13.5869L26.2976 14.302H27.022L26.9415 14.8252H26.2171L25.9757 16.1856C25.9556 16.2729 25.9958 16.3077 26.1165 16.3077C26.2574 16.3077 26.4385 16.2554 26.5994 16.2031L26.7604 16.6217C26.519 16.7263 26.2171 16.8135 25.8751 16.8135C25.4123 16.8135 25.191 16.5868 25.2514 16.2205ZM7.68607 15.0171C7.68607 14.9996 7.70619 14.8427 7.5251 14.8427C7.34402 14.8427 6.94161 14.9996 6.68004 15.1217L6.39835 16.7612H5.69413L6.11666 14.3369L6.72028 14.2497V14.5462C7.08245 14.3718 7.5251 14.2322 7.86715 14.2322C8.26957 14.2322 8.41041 14.459 8.43053 14.7206C8.43053 14.8252 8.43053 14.8776 8.41041 14.9648L8.1086 16.7438H7.40438L7.68607 15.0171ZM9.53717 16.0461C9.51705 16.1857 9.49692 16.3077 9.75849 16.3077C10.0603 16.3077 10.4828 16.1856 10.845 16.0287L11.006 16.4996C10.6639 16.674 10.1408 16.831 9.65789 16.831C8.89331 16.831 8.73234 16.4647 8.81282 15.9589L8.93355 15.2089C9.03415 14.6334 9.33596 14.2846 10.2011 14.2846C10.7444 14.2846 11.1267 14.5287 11.1468 14.9299C11.1669 15.3659 10.845 15.6275 10.0603 15.8368C9.71825 15.924 9.65789 15.9415 9.51704 15.9764L9.53717 16.0461ZM10.503 14.9299C10.503 14.8252 10.3822 14.738 10.2011 14.738C9.87921 14.738 9.73837 14.9124 9.69813 15.1392L9.65789 15.3834C9.75849 15.3659 9.77861 15.3485 10.0804 15.2787C10.3822 15.1915 10.503 15.0869 10.503 14.9299ZM22.7363 14.8252C22.4143 14.9822 22.193 15.1043 21.9113 15.2613L21.6498 16.7787H20.9455L21.3681 14.3543L21.9717 14.2671L21.9516 14.6334C22.1528 14.5113 22.4345 14.3543 22.6759 14.2671L22.7363 14.8252ZM22.7564 16.6566L22.8771 16.2031C23.0985 16.2729 23.4003 16.3252 23.6819 16.3252C24.0039 16.3252 24.0642 16.2729 24.0844 16.1159C24.1045 15.9589 24.0844 15.9066 23.6417 15.7322C23.0381 15.4706 22.9576 15.2961 23.018 14.9124C23.0985 14.4241 23.3198 14.2671 24.0844 14.2671C24.3459 14.2671 24.7081 14.3194 24.9495 14.3892L24.8489 14.8601C24.6276 14.8078 24.3057 14.7729 24.1045 14.7729C23.8228 14.7729 23.7423 14.7904 23.7021 14.9648C23.6819 15.1392 23.7222 15.1741 24.0441 15.3136C24.7081 15.6275 24.8288 15.7147 24.7685 16.0984C24.6679 16.6566 24.4667 16.831 23.6618 16.831C23.4003 16.8135 23.018 16.7612 22.7564 16.6566ZM13.7826 16.6566L13.9033 16.2031C14.1247 16.2729 14.4265 16.3252 14.7082 16.3252C15.0301 16.3252 15.0905 16.2729 15.1106 16.1159C15.1307 15.9589 15.1106 15.9066 14.6679 15.7322C14.0643 15.4706 13.9838 15.2961 14.0442 14.9124C14.1247 14.4241 14.346 14.2671 15.1106 14.2671C15.3721 14.2671 15.7343 14.3194 15.9758 14.3892L15.8752 14.8601C15.6538 14.8078 15.3319 14.7729 15.1307 14.7729C14.849 14.7729 14.7685 14.7904 14.7283 14.9648C14.7082 15.1392 14.7484 15.1741 15.0703 15.3136C15.7343 15.6275 15.855 15.7147 15.7947 16.0984C15.6941 16.6566 15.4929 16.831 14.688 16.831C14.4265 16.8135 14.0241 16.7612 13.7826 16.6566ZM11.4084 16.6566L11.5291 16.2031C11.7504 16.2729 12.0522 16.3252 12.3339 16.3252C12.6559 16.3252 12.7162 16.2729 12.7363 16.1159C12.7565 15.9589 12.7363 15.9066 12.2937 15.7322C11.6901 15.4706 11.6096 15.2961 11.6699 14.9124C11.7504 14.4241 11.9718 14.2671 12.7363 14.2671C12.9979 14.2671 13.3601 14.3194 13.6015 14.3892L13.5009 14.8601C13.2796 14.8078 12.9577 14.7729 12.7565 14.7729C12.4748 14.7729 12.3943 14.7904 12.354 14.9648C12.3339 15.1392 12.3742 15.1741 12.6961 15.3136C13.3601 15.6275 13.4808 15.7147 13.4204 16.0984C13.3198 16.6566 13.1186 16.831 12.3138 16.831C12.0522 16.8135 11.6498 16.7612 11.4084 16.6566ZM1.22736 14.3194L1.32796 13.6916H2.87725L2.97785 13.1509H0.724342L0 17.3368H0.704221L1.12675 14.8427H2.6358L2.29375 16.7787H2.99797L3.4205 14.3194H1.22736ZM18.511 14.3194L18.6116 13.6916H20.1608L20.2614 13.1509H18.0079L17.2836 17.3368H17.9878L18.4104 14.8427H19.8993L19.5572 16.7787H20.2614L20.684 14.3194H18.511Z" fill="white"/>
</svg>
