<svg width="89" height="18" viewBox="0 0 89 18" fill="none" xmlns="http://www.w3.org/2000/svg">
<path fill-rule="evenodd" clip-rule="evenodd" d="M32.3843 12.2913C32.3843 9.69083 30.8971 8.26833 25.5125 7.51255L25.5125 9.35742C29.2305 9.91309 30.1792 10.7577 30.1536 12.358C30.1279 13.8916 28.8458 15.4475 24.7689 15.4475C21.333 15.4475 19.3587 13.8694 18.9484 11.6689H16.4612C16.7689 14.3806 19.3843 17.3368 24.692 17.3368C30.1022 17.3368 32.3843 14.714 32.3843 12.2913ZM17.0509 4.71206C17.0509 8.0238 20.5125 9.00176 23.3843 9.22403L23.3842 7.35698C21.0253 7.09027 19.2817 6.35684 19.2817 4.73424C19.2817 3.13387 21.1022 1.88923 24.1022 1.88923C26.7945 1.88923 28.5894 3.04502 29.0253 4.84537H31.5894C31.3587 2.91171 29.2048 0 24.1022 0C20.2561 0 17.0509 1.82254 17.0509 4.71206ZM0.00012207 0.333496V2.26716H14.0514V0.333496H0.00012207ZM14.0514 7.71274H0.00012207V9.62423H14.0514V7.71274ZM14.0514 15.0697H0.00012207V17.0035H14.0514V15.0697ZM37.3328 0.333496V17.0035H35.102V0.333496H37.3328ZM39.461 2.26716V0.333496H43.2302C46.8456 0.333496 49.1532 2.28942 49.1532 4.97886C49.1532 7.6683 46.7174 9.62422 43.2302 9.62422H39.461V7.69045H43.2302C45.6148 7.69045 46.9225 6.57918 46.9225 4.97884C46.9225 3.3785 45.6148 2.26714 43.2302 2.26714L39.461 2.26716ZM54.076 0.333496H51.8453V17.0035H54.076V0.333496ZM66.4607 4.97886C66.4607 2.28942 64.153 0.333496 60.5376 0.333496H56.2042V2.26714H60.4606C62.8452 2.26714 64.1016 3.48963 64.1016 4.97884C64.1016 6.49022 62.8452 7.69045 60.4606 7.69045H56.2042V9.62422H60.5376C64.0248 9.62422 66.4607 7.6683 66.4607 4.97886ZM59.8709 11.2912L64.2299 17.0035H67.0248L62.5376 11.2912H59.8709ZM69.6655 0.333496H71.8962V17.0035H69.6655V0.333496ZM74.2803 0.333496V2.26716H88.8444V0.333496H74.2803ZM82.6906 17.0035V4.06751H80.4598V17.0035H82.6906Z" fill="white"/>
</svg>
