<svg width="172" height="18" viewBox="0 0 172 18" fill="none" xmlns="http://www.w3.org/2000/svg">
<path d="M22.114 16.9869H28.361L31.7102 0.370728H25.4632L24.228 6.32124H18.8123L20.0475 0.370728H13.8005L10.4513 16.9869H16.6983L17.9572 10.7687H23.3729L22.114 16.9869Z" fill="white"/>
<path d="M35.2495 0.350053L33.3492 9.59497C33.183 10.3156 33.1117 11.0157 33.1117 11.6746C33.1117 16.575 38.0523 17.3162 41.0214 17.3162C47.2447 17.3162 49.9288 15.5249 50.9027 10.6862L52.9929 0.329468H46.7459L44.9644 9.01845C44.3944 11.7363 43.9906 13.157 41.6628 13.157C40.1426 13.157 39.4062 12.457 39.4062 11.0157C39.4062 10.4597 39.5012 9.78028 39.6913 8.93609L41.4965 0.329468H35.2495V0.350053Z" fill="white"/>
<path d="M86.0095 16.9867H92.2566L93.1354 12.704H96.0808C101.52 12.704 104.537 10.1508 104.537 5.49748C104.537 2.22367 101.924 0.349976 97.3397 0.349976H89.3587L86.0095 16.9867ZM95.7482 8.60657H93.943L94.7744 4.69447H96.4608C97.8385 4.69447 98.5748 5.29158 98.5748 6.38285C98.5748 7.76238 97.506 8.60657 95.7482 8.60657Z" fill="white"/>
<path d="M116.675 0C109.881 0 105.819 3.80915 105.819 10.2126C105.819 14.6601 109.05 17.3368 114.466 17.3368C121.259 17.3368 125.321 13.5276 125.321 7.12414C125.344 2.65611 122.114 0 116.675 0ZM114.846 13.0335C113.23 13.0335 112.28 12.0246 112.28 10.3362C112.28 9.69789 112.352 9.14196 112.494 8.50367C112.969 6.32113 113.777 4.3239 116.318 4.3239C117.933 4.3239 118.884 5.33281 118.884 7.02119C118.884 7.65948 118.812 8.21541 118.67 8.8537C118.195 11.0157 117.387 13.0335 114.846 13.0335Z" fill="white"/>
<path d="M147.055 16.9869H153.302L155.772 4.81817H160.475L161.378 0.370728H145.392L144.489 4.81817H149.478L147.055 16.9869Z" fill="white"/>
<path d="M136.698 6.50644C134.727 5.9711 133.919 5.74461 133.919 4.9416C133.919 4.40626 134.323 3.76797 135.511 3.76797C136.389 3.76797 137.126 4.20036 137.411 4.83865L142.922 3.54148C142.28 1.19422 139.952 0 135.938 0C128.385 0 127.791 4.38567 127.791 5.72402C127.791 8.4419 129.454 10.1097 133.064 10.9745C134.014 11.201 135.107 11.448 135.107 12.354C135.107 13.0746 134.489 13.5276 133.42 13.5276C132.446 13.5276 131.401 13.0335 131.045 12.1687L125.606 13.4453C126.199 15.9161 128.884 17.3162 133.088 17.3162C136.294 17.3162 141.663 16.575 141.663 11.551C141.686 9.03901 140.047 7.39181 136.698 6.50644Z" fill="white"/>
<path d="M6.95962 16.9869L10.3325 0.370728H0V16.9869H6.95962Z" fill="white"/>
<path d="M164.062 0.370728L160.713 16.9869H171.045V0.370728H164.062Z" fill="white"/>
<path d="M60.4513 12.0863H65.7007L66.5558 7.90651H61.3064L61.9003 4.81801H69.2399L70.1425 0.349976H56.5558L53.2067 16.9867H59.4537L60.4513 12.0863Z" fill="white"/>
<path d="M76.8172 12.0863H82.0904L82.9455 7.90651H77.6961L78.2899 4.81801H85.6296L86.5322 0.349976H72.9455L69.5963 16.9867H75.8433L76.8172 12.0863Z" fill="white"/>
</svg>
