<svg width="44" height="18" viewBox="0 0 44 18" fill="none" xmlns="http://www.w3.org/2000/svg">
<path d="M14.2781 16.0851L14.2959 16.0542L14.3137 16.0851C14.5276 16.3942 14.6881 16.6414 14.9554 16.6723C15.205 16.626 15.2585 16.3942 15.3298 16.1624C15.3298 16.1315 15.3476 16.1161 15.3476 16.0851C15.205 16.0388 15.098 15.9461 15.0446 15.8997C15.0267 15.9461 15.0267 15.9924 15.0267 16.0233C15.0089 16.147 14.9911 16.2088 14.9376 16.2088C14.9198 16.2088 14.9198 16.2088 14.902 16.1933C14.7415 16.1006 14.5455 15.7298 14.5276 15.7143V15.6989V15.6834C14.6346 15.5134 14.7415 15.328 14.8485 15.158C14.9554 14.9572 15.0624 14.7872 15.1337 14.6945L14.7237 14.5091C14.6881 14.6636 14.5989 14.8799 14.5276 15.0653C14.492 15.158 14.4563 15.2353 14.4385 15.2971L14.4207 15.3744L14.4029 15.2971C14.3137 15.019 14.2424 14.3391 14.2246 14.3082V14.2928H14.8841L15.2406 14.3082V14.0146L14.8663 14.0301H14.2068V13.5665H13.8146C13.8146 13.6129 13.8324 13.7365 13.8503 13.8138L13.8681 14.0146H12.6382L12.1034 14.0301V14.3237L12.6025 14.3082H13.8324V14.3237C13.8859 14.7409 14.0285 15.4825 14.1355 15.7452V15.7607V15.7761C13.9394 16.0851 13.4581 16.4251 13.3155 16.5178C13.3868 16.5487 13.5116 16.6105 13.6542 16.7341C13.7433 16.6414 14.0998 16.3169 14.2781 16.0851Z" fill="white"/>
<path d="M13.7612 16.0543V15.7761C13.3333 15.9152 12.5669 16.0233 12.0499 16.0543C12.0678 16.1161 12.1391 16.3015 12.1925 16.4251L13.7612 16.0543Z" fill="white"/>
<path d="M13.6364 14.6173L13.2799 14.6328H12.7274L12.3708 14.6173L12.3887 14.8954V15.359L12.3708 15.668L12.7452 15.6526H13.2799L13.6186 15.668L13.6008 15.3126V14.8954L13.6364 14.6173ZM13.2978 15.4053H12.7274V14.9109H13.2978V15.4053Z" fill="white"/>
<path d="M14.4563 13.7052L14.7059 13.9673L15.0089 13.8131L14.7415 13.5665L14.4563 13.7052Z" fill="white"/>
<path d="M15.8289 17.2596L15.811 16.8115V13.5976L15.8289 13.1649L15.3119 13.1958H12.0855L11.5508 13.1804L11.5686 13.6748V16.8579L11.5508 17.3369H11.9608V17.0896H15.4367V17.2596H15.8289ZM11.9608 16.7806V16.7652V13.4894H15.4367V16.7806H11.9608Z" fill="white"/>
<path d="M21.319 15.6063C21.426 16.2552 22.0677 16.8269 22.3885 16.9351C22.4777 16.7188 22.6381 16.5797 22.7272 16.5179C21.6933 16.1471 21.622 15.4054 21.622 15.4054V15.3899L21.6399 15.3745C21.8894 15.2045 22.1746 15.0655 22.2994 15.0191L21.8894 14.7255C21.4973 15.0346 20.8912 15.4054 20.8734 15.4054L20.8377 15.4363L20.8199 15.4054C20.6417 15.0964 20.2851 14.8646 20.2673 14.8646L20.2138 14.8337L20.2673 14.8028C20.3743 14.741 20.6595 14.4937 20.6595 14.4937L20.6773 14.4783H21.5686L21.8894 14.4937V14.1538L21.5864 14.1693H19.483L19.073 14.1538V14.4937L19.4295 14.4783H20.1069L20.0356 14.5401C19.7147 14.8337 19.0908 15.0809 18.2887 15.2663C18.4313 15.359 18.5026 15.5136 18.5383 15.5754C19.0374 15.4363 19.893 15.0346 19.9108 15.0346H19.9286H19.9465C20.0534 15.0655 20.1425 15.1736 20.1604 15.1736L20.1782 15.2045L20.1247 15.1891C19.5543 15.7144 18.6096 15.9462 18.3065 16.0235C18.4313 16.1162 18.5026 16.2707 18.5383 16.3325C19.2513 16.1316 20.303 15.4517 20.3208 15.4363L20.3564 15.4208L20.3743 15.4517C20.3921 15.4672 20.4812 15.5599 20.4812 15.6217V15.6372L20.4634 15.6526C20.0891 16.0235 19.3939 16.5334 18.1996 16.7651C18.3422 16.8888 18.4313 17.0433 18.467 17.1205C19.8395 16.6879 20.5525 16.008 20.5525 16.008L20.606 15.9462L20.6238 16.0235C20.6595 16.317 20.6238 16.5334 20.4812 16.6724C20.303 16.8424 20.0356 16.8424 19.893 16.8424C19.9999 17.0124 20.0712 17.1978 20.0891 17.275C20.2317 17.2441 20.7486 17.1051 20.8734 16.9042C21.0516 16.6261 21.1051 16.178 20.9982 15.7762V15.7453L21.319 15.5599V15.6063Z" fill="white"/>
<path d="M18.3243 13.4739L18.3422 13.7521V14.2156L18.3243 14.4783H18.77V13.8139H22.1746V14.4319H22.6024L22.5846 14.1229V13.7521L22.6024 13.4739L22.2281 13.4894H20.7664V13.4585C20.7308 13.2885 20.6416 13.0876 20.6238 13.0104L20.1425 13.0876C20.2138 13.2576 20.2495 13.443 20.2495 13.4585V13.5048H18.6987L18.3243 13.4739Z" fill="white"/>
<path d="M26.7201 16.6415C26.7201 16.796 26.7201 16.9351 26.827 17.0432C26.9874 17.1823 27.3618 17.2286 28.0213 17.1977C29.2156 17.1514 29.2513 17.0741 29.4473 16.5951C29.4652 16.5642 29.4652 16.5333 29.483 16.5024C29.2869 16.4252 29.1443 16.3324 29.073 16.2861C28.966 16.8578 28.6452 16.8578 28.057 16.8733H27.9857C27.95 16.8733 27.8965 16.8733 27.8609 16.8733C27.7896 16.8733 27.7361 16.8733 27.6826 16.8733C27.3439 16.8733 27.13 16.796 27.13 16.3942V14.9418L27.6826 14.7409V15.9925L27.6648 16.4097H28.0926L28.0748 15.9925V14.6328L28.7165 14.4473V15.3281C28.6808 15.5908 28.5917 15.668 28.2887 15.668C28.3956 15.8071 28.4313 15.9771 28.4491 16.0543C28.5739 16.0389 29.0552 15.9771 29.0908 15.6526C29.1087 15.4826 29.1265 14.1229 29.1265 13.922C29.0552 13.9374 28.8769 14.0147 28.7521 14.061L28.0748 14.2928V13.5357L28.0926 13.0721H27.6648L27.6826 13.5357V14.401L27.13 14.5555V14.061L27.1479 13.6902H26.6844L26.7022 14.061V14.7255H26.6666C26.4883 14.7718 26.2744 14.8182 26.1853 14.8336L26.2923 15.2045C26.3636 15.1736 26.5062 15.1272 26.6309 15.0809L26.6844 15.05V16.5642C26.7201 16.5951 26.7201 16.626 26.7201 16.6415Z" fill="white"/>
<path d="M26.2744 16.4097V16.0234L25.7397 16.2397V14.7255H25.9001C26.007 14.7255 26.1675 14.7409 26.2388 14.7409V14.3546C26.1675 14.3546 26.007 14.3701 25.9179 14.3701H25.7397V13.6129C25.7397 13.5357 25.7575 13.3657 25.7575 13.2885H25.3297C25.3297 13.3503 25.3475 13.5048 25.3475 13.6129V14.3855H25.1871C25.0266 14.3855 24.9375 14.3855 24.8127 14.3701V14.7409C24.884 14.7409 25.0623 14.7255 25.1871 14.7255H25.3653V16.3324L25.3475 16.3479C25.2049 16.4097 24.991 16.456 24.8306 16.4715C24.8662 16.5488 24.9553 16.7342 24.991 16.9659C25.0979 16.8578 25.5079 16.6569 26.2744 16.4097Z" fill="white"/>
<path d="M32.9945 16.4869C32.9945 16.3324 32.9767 16.1469 32.9767 16.0697L32.335 16.3324V15.1426H32.5846L32.8341 15.158V14.7718L32.5667 14.7872H32.335V13.7365H32.6915L32.9054 13.7519V13.3811L32.6737 13.3966H31.7111L31.4081 13.3811V13.7519L31.729 13.7365H31.9785V14.7872H31.6933L31.4259 14.7563V15.1426L31.6755 15.1271H31.9785V16.4096H31.9607C31.6398 16.5332 31.3903 16.5796 31.319 16.5796L31.4437 17.0431C32.2281 16.7341 32.8876 16.5178 32.9945 16.4869Z" fill="white"/>
<path d="M35.918 17.2287V16.8578L35.508 16.8733H34.5811V16.317H35.2585L35.6328 16.3325V15.9771L35.2406 15.9925H34.5811V15.4672H35.2228L35.6506 15.4826L35.6328 15.189V13.613L35.6506 13.2267L35.205 13.2421H33.6007L33.1907 13.2267L33.2086 13.6593V15.1581L33.1907 15.4981L33.6185 15.4826H34.2246V16.008H33.6185L33.262 15.9925V16.3325L33.6364 16.317H34.2246V16.8733H33.1907L32.7986 16.8578V17.2287L33.1907 17.2132H35.4546L35.918 17.2287ZM34.5989 13.5512H35.2585V14.2001H34.5989V13.5512ZM34.5989 14.4937H35.2585V15.1581H34.5989V14.4937ZM34.2246 15.1581H33.6007V14.4937H34.2246V15.1581ZM34.2246 14.1847H33.6007V13.5357H34.2246V14.1847Z" fill="white"/>
<path d="M0 0H8.98395V11.1561H0V0ZM7.6827 1.12797H1.30125V10.0281H7.6827V1.12797Z" fill="#FFCC00"/>
<path d="M14.8841 5.00632H14.3315C13.6007 4.11012 12.8699 3.21392 12.139 2.20957V5.00632H11.5151V1.09705H12.0677C12.7986 1.99324 13.5294 2.87399 14.2424 3.87834H14.2602V1.09705H14.8841V5.00632Z" fill="white"/>
<path d="M16.3458 3.46115C16.524 2.95124 16.7023 2.47224 16.8627 1.86963H16.8806C17.0588 2.47224 17.2192 2.95124 17.3797 3.46115H16.3458ZM16.6488 1.09705L15.098 4.99086H15.7576L16.1497 3.9247H17.5044L17.8609 4.99086H18.7166L17.2905 1.09705H16.6488Z" fill="white"/>
<path d="M19.4475 5.00632V1.6224H18.271V1.09705H21.4082V1.6224H20.214V5.00632H19.4475Z" fill="white"/>
<path d="M22.4242 1.09705H21.6577V4.99086H22.4242V1.09705Z" fill="white"/>
<path d="M24.795 4.5119C23.9929 4.5119 23.7077 3.73932 23.7077 2.99764C23.7077 2.27141 24.0285 1.59154 24.795 1.59154C25.5615 1.59154 25.8823 2.27141 25.8823 2.99764C25.8823 3.73932 25.5971 4.5119 24.795 4.5119ZM24.795 5.06816C25.9715 5.06816 26.7023 4.15651 26.7023 2.99764C26.7023 1.90057 25.9002 1.03528 24.795 1.03528C23.6898 1.03528 22.8877 1.90057 22.8877 2.99764C22.8877 4.15651 23.6185 5.06816 24.795 5.06816Z" fill="white"/>
<path d="M30.5348 5.00632H29.9822C29.2513 4.11012 28.5205 3.21392 27.7897 2.20957V5.00632H27.1658V1.09705H27.7184C28.4492 1.99324 29.18 2.87399 29.893 3.87834H29.9109V1.09705H30.5348V5.00632Z" fill="white"/>
<path d="M32.0143 3.46115C32.1925 2.95124 32.3708 2.47224 32.5312 1.86963H32.549C32.7273 2.47224 32.8877 2.95124 33.0659 3.46115H32.0143ZM32.2995 1.09705L30.7487 4.99086H31.426L31.8182 3.9247H33.1729L33.5294 4.99086H34.385L32.959 1.09705H32.2995Z" fill="white"/>
<path d="M34.5989 1.09705H35.3654V4.48096H36.8983V5.00632H34.5989V1.09705Z" fill="white"/>
<path d="M14.4028 8.26665V9.87362C13.9928 10.0127 13.565 10.1054 13.1194 10.1054C11.8003 10.1054 10.9625 9.2092 10.9625 8.06577C10.9625 6.99961 11.8003 6.07251 13.155 6.07251C13.565 6.07251 13.9928 6.21157 14.2424 6.36609L13.9928 6.82964C13.7789 6.72148 13.4581 6.62877 13.1729 6.62877C12.3529 6.62877 11.7825 7.18503 11.7825 8.08123C11.7825 9.00833 12.4242 9.54913 13.0837 9.54913C13.2976 9.54913 13.4581 9.53368 13.6185 9.45642V8.25119H14.4028V8.26665Z" fill="white"/>
<path d="M17.1658 6.67514H15.8823V7.7413H17.1479V8.26666H15.8823V9.53369H17.3975V10.0436H15.1158V6.14978H17.1658V6.67514Z" fill="white"/>
<path d="M19.5366 9.56464C18.7344 9.56464 18.4492 8.79205 18.4492 8.05037C18.4492 7.3396 18.7701 6.64427 19.5366 6.64427C20.3031 6.64427 20.6239 7.32415 20.6239 8.05037C20.6239 8.79205 20.3387 9.56464 19.5366 9.56464ZM19.5366 10.1209C20.713 10.1209 21.4439 9.20925 21.4439 8.05037C21.4439 6.95331 20.6417 6.08801 19.5366 6.08801C18.4314 6.08801 17.6293 6.95331 17.6293 8.05037C17.6293 9.20925 18.3601 10.1209 19.5366 10.1209Z" fill="white"/>
<path d="M25.1515 8.26665V9.87362C24.7415 10.0127 24.3137 10.1054 23.868 10.1054C22.549 10.1054 21.7112 9.2092 21.7112 8.06577C21.7112 6.99961 22.549 6.07251 23.9037 6.07251C24.3137 6.07251 24.7415 6.21157 24.991 6.36609L24.7415 6.82964C24.5276 6.72148 24.2067 6.62877 23.9215 6.62877C23.1016 6.62877 22.5311 7.18503 22.5311 8.08123C22.5311 9.00833 23.1729 9.54913 23.8324 9.54913C24.0463 9.54913 24.2067 9.53368 24.3672 9.45642V8.25119H25.1515V8.26665Z" fill="white"/>
<path d="M26.631 6.67509H26.9697C27.4331 6.67509 27.6827 6.90686 27.6827 7.3086C27.6827 7.83396 27.3083 8.06573 26.9518 8.08119C26.8805 8.08119 26.7023 8.09664 26.631 8.09664V6.67509ZM28.5918 10.0435L27.6827 8.42112C28.1818 8.18935 28.467 7.7258 28.467 7.26225C28.467 6.50512 27.9322 6.13428 27.0766 6.13428H25.8823V10.0281H26.6488V8.56019H26.9875H27.0053L27.7362 10.0281H28.5918V10.0435Z" fill="white"/>
<path d="M29.8574 8.51388C30.0356 8.00398 30.2139 7.52498 30.3743 6.92236H30.3921C30.5704 7.52498 30.7308 8.00398 30.8913 8.51388H29.8574ZM30.1604 6.14978L28.6096 10.0436H29.287L29.6791 8.97743H31.0339L31.3904 10.0436H32.246L30.82 6.14978H30.1604Z" fill="white"/>
<path d="M33.2441 10.0436H32.4777V6.14978H33.672C34.5276 6.14978 35.0623 6.52062 35.0623 7.27775C35.0623 7.94217 34.5097 8.57569 33.5828 8.57569H33.2263V8.09669C33.262 8.09669 33.4759 8.08124 33.565 8.08124C33.9393 8.06579 34.2958 7.83401 34.2958 7.30865C34.2958 6.90691 34.0463 6.67514 33.5828 6.67514H33.2263V10.0436H33.2441Z" fill="white"/>
<path d="M38.6452 10.0436H37.8787V8.17395H36.2744V10.0436H35.5079V6.14978H36.2744V7.64859H37.8787V6.16523H38.6452V10.0436Z" fill="white"/>
<path d="M40.1604 6.14978H39.3939V10.0436H40.1604V6.14978Z" fill="white"/>
<path d="M43.6185 6.86054C43.4403 6.76783 43.1194 6.64422 42.8342 6.64422C42.0499 6.64422 41.4795 7.20048 41.4795 8.09668C41.4795 9.02378 42.1034 9.56458 42.8521 9.56458C43.1551 9.56458 43.4225 9.48733 43.6185 9.36371L43.8324 9.84272C43.6007 9.98178 43.1907 10.1054 42.8164 10.1054C41.4973 10.1054 40.6595 9.2092 40.6595 8.06577C40.6595 6.99961 41.4795 6.07251 42.8342 6.07251C43.2264 6.07251 43.6007 6.21157 43.8681 6.36609L43.6185 6.86054Z" fill="white"/>
</svg>
