<svg width="58" height="18" viewBox="0 0 58 18" fill="none" xmlns="http://www.w3.org/2000/svg">
<path d="M57.1361 0L15.3361 15.4297C11.8694 16.7011 8.95834 17.3368 6.60278 17.3368C3.93611 17.3368 2.00278 16.5277 0.802778 14.9096C0.0472222 13.8694 -0.175 12.5499 0.136111 10.9511C0.447222 9.35223 1.26944 7.64745 2.60278 5.83672C3.71389 4.37272 5.53611 2.44641 8.06945 0.0577892C7.18056 1.29063 6.55834 2.56199 6.20278 3.87188C5.53611 6.33756 6.13611 8.14829 8.00278 9.30407C8.89167 9.84344 10.1139 10.1131 11.6694 10.1131C12.9139 10.1131 14.3139 9.93975 15.8694 9.59302L57.1361 0Z" fill="white"/>
</svg>
