<svg width="121" height="18" viewBox="0 0 121 18" fill="none" xmlns="http://www.w3.org/2000/svg">
<path d="M11.9723 8.91692C12.9151 8.9803 13.7348 9.32724 14.4352 9.95439C15.1318 10.5849 15.482 11.4489 15.482 12.5497C15.482 13.9008 14.9663 14.9783 13.9311 15.7822C12.8959 16.5829 11.4104 16.9865 9.46697 16.9865H0V1.18092H9.44388C11.1141 1.18092 12.4495 1.57455 13.4577 2.36183C14.466 3.14911 14.9663 4.19325 14.9663 5.4976C14.9663 6.48837 14.6507 7.27564 14.0157 7.85609C13.3808 8.43654 12.6996 8.76013 11.9761 8.82351V8.91692H11.9723ZM4.49104 7.71265H8.40867C9.07829 7.71265 9.61321 7.55253 10.0134 7.22894C10.4137 6.90536 10.6138 6.47836 10.6138 5.94461C10.6138 5.45757 10.4175 5.06393 10.0288 4.76369C9.64015 4.46346 9.15525 4.31668 8.57415 4.31668H4.49104V7.71265ZM8.6819 13.8474C9.39 13.8474 9.93647 13.6906 10.329 13.377C10.7177 13.0635 10.914 12.6298 10.914 12.0794C10.914 11.559 10.7138 11.1486 10.3136 10.8417C9.91338 10.5348 9.3977 10.3814 8.76272 10.3814H4.49104V13.8474H8.6819ZM31.0717 16.9832H26.7192V15.8523C25.6301 16.8431 24.2331 17.3368 22.5283 17.3368C20.9312 17.3368 19.6497 16.8831 18.6761 15.9791C17.7063 15.075 17.2214 13.8841 17.2214 12.4063V5.14399H21.547V11.6057C21.547 12.2962 21.7663 12.86 22.2012 13.2936C22.6361 13.7273 23.1979 13.9408 23.8868 13.9408C24.7758 13.9408 25.4685 13.6706 25.9687 13.1268C26.469 12.5831 26.7153 11.7558 26.7153 10.6383V5.14399H31.0678V16.9832H31.0717ZM44.4794 16.9832H32.9535V16.2726L38.372 8.13965H33.0882V5.14399H44.4139V5.85454L38.9954 13.9875H44.4794V16.9832ZM57.8871 16.9832H46.3612V16.2726L51.7797 8.13965H46.4921V5.14399H57.8178V5.85454L52.3993 13.9875H57.8832V16.9832H57.8871ZM64.36 7.92615H72.2337V11.3221H64.36V16.9832H59.869V1.18092H72.9572V4.60023H64.36V7.92615ZM104.133 12.0293H94.1194C94.3772 13.4971 95.6433 14.3178 97.5598 14.3178C99.0684 14.3178 100.558 13.804 101.674 13.0601L103.344 15.5687C101.816 16.7063 99.8342 17.3368 97.5598 17.3368C92.9803 17.3368 89.8477 14.9182 89.8477 11.0619C89.8477 9.23716 90.5481 7.736 91.9412 6.55508C93.3382 5.37417 95.0507 4.78705 97.0826 4.78705C99.0607 4.78705 100.719 5.36083 102.062 6.50838C103.405 7.65594 104.094 9.17378 104.129 11.0619V12.0293H104.133ZM95.3162 8.34981C94.7736 8.68007 94.4003 9.13709 94.2002 9.71754H99.8342C99.6341 9.10373 99.2916 8.64003 98.799 8.32646C98.3102 8.01288 97.7368 7.85609 97.0865 7.85609C96.4515 7.85609 95.8627 8.01955 95.3162 8.34981ZM88.2121 12.0293H78.1987C78.4566 13.4971 79.7227 14.3178 81.6391 14.3178C83.1477 14.3178 84.637 13.804 85.753 13.0601L87.4232 15.5687C85.8954 16.7063 83.9135 17.3368 81.6391 17.3368C77.0596 17.3368 73.927 14.9182 73.927 11.0619C73.927 9.23716 74.6274 7.736 76.0205 6.55508C77.4175 5.37417 79.13 4.78705 81.1619 4.78705C83.14 4.78705 84.7986 5.36083 86.1417 6.50838C87.4848 7.65594 88.1737 9.17378 88.2083 11.0619V12.0293H88.2121ZM79.3955 8.34981C78.8529 8.68007 78.4796 9.13709 78.2795 9.71754H83.9135C83.7134 9.10373 83.3709 8.64003 82.8783 8.32646C82.3896 8.01288 81.8162 7.85609 81.1658 7.85609C80.527 7.85609 79.9382 8.01955 79.3955 8.34981ZM120.977 16.9832H116.625V16.0391C115.516 16.9031 114.104 17.3368 112.38 17.3368C110.529 17.3368 108.955 16.7497 107.658 15.5788C106.361 14.4078 105.711 12.9 105.711 11.0619C105.711 9.23716 106.361 7.736 107.658 6.55508C108.955 5.37417 110.529 4.78705 112.38 4.78705C114.104 4.78705 115.52 5.22072 116.625 6.08472V0H120.977V16.9832ZM115.632 13.2703C116.294 12.6965 116.625 11.9626 116.625 11.0652C116.625 10.1846 116.294 9.454 115.632 8.87021C114.97 8.28976 114.185 7.9962 113.277 7.9962C112.314 7.9962 111.526 8.28309 110.91 8.85687C110.294 9.43065 109.986 10.1646 109.986 11.0619C109.986 11.9726 110.294 12.7132 110.91 13.2803C111.526 13.8474 112.314 14.131 113.277 14.131C114.185 14.131 114.97 13.8441 115.632 13.2703Z" fill="white"/>
</svg>
